<mxfile host="app.diagrams.net" agent="Mozilla/5.0 (X11; Linux x86_64; rv:133.0) Gecko/20100101 Firefox/133.0" version="25.0.1">
  <diagram name="Page-1" id="MicuLCf74k77lr7k7DQI">
    <mxGraphModel dx="1277" dy="473" grid="1" gridSize="10" guides="1" tooltips="1" connect="1" arrows="1" fold="1" page="0" pageScale="1" pageWidth="850" pageHeight="1100" math="0" shadow="0">
      <root>
        <mxCell id="0" />
        <mxCell id="1" parent="0" />
        <mxCell id="830I__SFOpYsRtfBFBau-1" value="" style="ellipse;whiteSpace=wrap;html=1;aspect=fixed;" parent="1" vertex="1">
          <mxGeometry x="70" y="410" width="80" height="80" as="geometry" />
        </mxCell>
        <mxCell id="830I__SFOpYsRtfBFBau-2" value="" style="endArrow=classic;html=1;rounded=0;exitX=1;exitY=0;exitDx=0;exitDy=0;entryX=0;entryY=0;entryDx=0;entryDy=0;" parent="1" source="830I__SFOpYsRtfBFBau-1" target="830I__SFOpYsRtfBFBau-4" edge="1">
          <mxGeometry width="50" height="50" relative="1" as="geometry">
            <mxPoint x="400" y="540" as="sourcePoint" />
            <mxPoint x="300" y="422" as="targetPoint" />
          </mxGeometry>
        </mxCell>
        <mxCell id="830I__SFOpYsRtfBFBau-3" value="" style="endArrow=classic;html=1;rounded=0;entryX=1;entryY=1;entryDx=0;entryDy=0;exitX=0;exitY=1;exitDx=0;exitDy=0;" parent="1" source="830I__SFOpYsRtfBFBau-4" target="830I__SFOpYsRtfBFBau-1" edge="1">
          <mxGeometry width="50" height="50" relative="1" as="geometry">
            <mxPoint x="300" y="478" as="sourcePoint" />
            <mxPoint x="322" y="460" as="targetPoint" />
          </mxGeometry>
        </mxCell>
        <mxCell id="830I__SFOpYsRtfBFBau-4" value="" style="ellipse;whiteSpace=wrap;html=1;aspect=fixed;" parent="1" vertex="1">
          <mxGeometry x="260" y="410" width="80" height="80" as="geometry" />
        </mxCell>
        <mxCell id="830I__SFOpYsRtfBFBau-5" value="" style="ellipse;whiteSpace=wrap;html=1;aspect=fixed;" parent="1" vertex="1">
          <mxGeometry x="-120" y="410" width="80" height="80" as="geometry" />
        </mxCell>
        <mxCell id="830I__SFOpYsRtfBFBau-6" value="" style="endArrow=classic;html=1;rounded=0;exitX=1;exitY=0;exitDx=0;exitDy=0;entryX=0;entryY=0;entryDx=0;entryDy=0;" parent="1" source="830I__SFOpYsRtfBFBau-5" edge="1">
          <mxGeometry width="50" height="50" relative="1" as="geometry">
            <mxPoint x="210" y="540" as="sourcePoint" />
            <mxPoint x="82" y="422" as="targetPoint" />
          </mxGeometry>
        </mxCell>
        <mxCell id="830I__SFOpYsRtfBFBau-7" value="" style="endArrow=classic;html=1;rounded=0;entryX=1;entryY=1;entryDx=0;entryDy=0;exitX=0;exitY=1;exitDx=0;exitDy=0;" parent="1" target="830I__SFOpYsRtfBFBau-5" edge="1">
          <mxGeometry width="50" height="50" relative="1" as="geometry">
            <mxPoint x="82" y="478" as="sourcePoint" />
            <mxPoint x="132" y="460" as="targetPoint" />
          </mxGeometry>
        </mxCell>
        <mxCell id="830I__SFOpYsRtfBFBau-8" value="" style="ellipse;whiteSpace=wrap;html=1;aspect=fixed;" parent="1" vertex="1">
          <mxGeometry x="-310" y="410" width="80" height="80" as="geometry" />
        </mxCell>
        <mxCell id="830I__SFOpYsRtfBFBau-9" value="" style="endArrow=classic;html=1;rounded=0;exitX=1;exitY=0;exitDx=0;exitDy=0;entryX=0;entryY=0;entryDx=0;entryDy=0;" parent="1" source="830I__SFOpYsRtfBFBau-8" edge="1">
          <mxGeometry width="50" height="50" relative="1" as="geometry">
            <mxPoint x="20" y="540" as="sourcePoint" />
            <mxPoint x="-108" y="422" as="targetPoint" />
          </mxGeometry>
        </mxCell>
        <mxCell id="830I__SFOpYsRtfBFBau-10" value="" style="endArrow=classic;html=1;rounded=0;entryX=1;entryY=1;entryDx=0;entryDy=0;exitX=0;exitY=1;exitDx=0;exitDy=0;" parent="1" target="830I__SFOpYsRtfBFBau-8" edge="1">
          <mxGeometry width="50" height="50" relative="1" as="geometry">
            <mxPoint x="-108" y="478" as="sourcePoint" />
            <mxPoint x="-58" y="460" as="targetPoint" />
          </mxGeometry>
        </mxCell>
        <mxCell id="830I__SFOpYsRtfBFBau-14" value="" style="endArrow=classic;html=1;rounded=0;entryX=0.5;entryY=0;entryDx=0;entryDy=0;" parent="1" edge="1">
          <mxGeometry width="50" height="50" relative="1" as="geometry">
            <mxPoint x="-80" y="320" as="sourcePoint" />
            <mxPoint x="-80" y="410" as="targetPoint" />
          </mxGeometry>
        </mxCell>
        <mxCell id="830I__SFOpYsRtfBFBau-15" value="" style="ellipse;whiteSpace=wrap;html=1;aspect=fixed;strokeColor=default;fillColor=#141414;" parent="1" vertex="1">
          <mxGeometry x="-85" y="310" width="10" height="10" as="geometry" />
        </mxCell>
        <mxCell id="830I__SFOpYsRtfBFBau-16" value="" style="endArrow=classic;html=1;rounded=0;entryX=0.5;entryY=0;entryDx=0;entryDy=0;" parent="1" edge="1">
          <mxGeometry width="50" height="50" relative="1" as="geometry">
            <mxPoint x="300" y="320" as="sourcePoint" />
            <mxPoint x="300" y="410" as="targetPoint" />
          </mxGeometry>
        </mxCell>
        <mxCell id="830I__SFOpYsRtfBFBau-17" value="" style="ellipse;whiteSpace=wrap;html=1;aspect=fixed;strokeColor=default;fillColor=#141414;" parent="1" vertex="1">
          <mxGeometry x="295" y="310" width="10" height="10" as="geometry" />
        </mxCell>
        <mxCell id="830I__SFOpYsRtfBFBau-18" value="&lt;div&gt;P = U(0,6)&lt;/div&gt;&lt;div&gt;D = U(0,10) min&lt;br&gt;&lt;/div&gt;T&lt;sub&gt;mul&lt;/sub&gt; = 6" style="text;html=1;align=left;verticalAlign=middle;whiteSpace=wrap;rounded=0;" parent="1" vertex="1">
          <mxGeometry x="-100" y="250" width="100" height="50" as="geometry" />
        </mxCell>
        <mxCell id="830I__SFOpYsRtfBFBau-19" value="&lt;div&gt;P = U(3,7)&lt;/div&gt;&lt;div&gt;D = U(3,15) min&lt;br&gt;&lt;/div&gt;T&lt;sub&gt;mul&lt;/sub&gt; = 4" style="text;html=1;align=left;verticalAlign=middle;whiteSpace=wrap;rounded=0;" parent="1" vertex="1">
          <mxGeometry x="280" y="250" width="100" height="50" as="geometry" />
        </mxCell>
        <mxCell id="830I__SFOpYsRtfBFBau-20" value="&lt;div&gt;P = U(1,5)&lt;/div&gt;T&lt;sub&gt;next&lt;/sub&gt; = 15 min" style="text;html=1;align=left;verticalAlign=middle;whiteSpace=wrap;rounded=0;" parent="1" vertex="1">
          <mxGeometry x="-305" y="500" width="85" height="30" as="geometry" />
        </mxCell>
        <mxCell id="830I__SFOpYsRtfBFBau-22" value="&lt;div&gt;P = U(0,4)&lt;/div&gt;T&lt;sub&gt;next&lt;/sub&gt; = 10 min" style="text;html=1;align=left;verticalAlign=middle;whiteSpace=wrap;rounded=0;" parent="1" vertex="1">
          <mxGeometry x="-122.5" y="500" width="85" height="30" as="geometry" />
        </mxCell>
        <mxCell id="830I__SFOpYsRtfBFBau-23" value="&lt;div&gt;P = U(1,6)&lt;/div&gt;T&lt;sub&gt;next&lt;/sub&gt; = 20 min" style="text;html=1;align=left;verticalAlign=middle;whiteSpace=wrap;rounded=0;" parent="1" vertex="1">
          <mxGeometry x="67.5" y="500" width="85" height="30" as="geometry" />
        </mxCell>
        <mxCell id="830I__SFOpYsRtfBFBau-24" value="&lt;div&gt;P = U(2,10)&lt;/div&gt;T&lt;sub&gt;next&lt;/sub&gt; = 0 min" style="text;html=1;align=left;verticalAlign=middle;whiteSpace=wrap;rounded=0;" parent="1" vertex="1">
          <mxGeometry x="257.5" y="500" width="85" height="30" as="geometry" />
        </mxCell>
        <mxCell id="830I__SFOpYsRtfBFBau-29" value="" style="endArrow=none;html=1;rounded=0;fontColor=#666666;strokeColor=#B3B3B3;" parent="1" edge="1">
          <mxGeometry width="50" height="50" relative="1" as="geometry">
            <mxPoint x="-310" y="560" as="sourcePoint" />
            <mxPoint x="340" y="560" as="targetPoint" />
          </mxGeometry>
        </mxCell>
        <mxCell id="830I__SFOpYsRtfBFBau-30" value="" style="endArrow=none;html=1;rounded=0;fontColor=#666666;strokeColor=#B3B3B3;" parent="1" edge="1">
          <mxGeometry width="50" height="50" relative="1" as="geometry">
            <mxPoint x="-310" y="560" as="sourcePoint" />
            <mxPoint x="-310" y="540" as="targetPoint" />
          </mxGeometry>
        </mxCell>
        <mxCell id="830I__SFOpYsRtfBFBau-31" value="" style="endArrow=none;html=1;rounded=0;fontColor=#666666;strokeColor=#B3B3B3;" parent="1" edge="1">
          <mxGeometry width="50" height="50" relative="1" as="geometry">
            <mxPoint x="340" y="560" as="sourcePoint" />
            <mxPoint x="340" y="540" as="targetPoint" />
          </mxGeometry>
        </mxCell>
        <mxCell id="830I__SFOpYsRtfBFBau-32" value="" style="endArrow=none;html=1;rounded=0;fontColor=#666666;strokeColor=#B3B3B3;" parent="1" edge="1">
          <mxGeometry width="50" height="50" relative="1" as="geometry">
            <mxPoint x="20" y="580" as="sourcePoint" />
            <mxPoint x="20" y="560" as="targetPoint" />
          </mxGeometry>
        </mxCell>
        <mxCell id="830I__SFOpYsRtfBFBau-33" value="connecting train route" style="text;html=1;align=center;verticalAlign=middle;whiteSpace=wrap;rounded=0;fontSize=10;strokeColor=none;fontColor=#B3B3B3;" parent="1" vertex="1">
          <mxGeometry x="-37.5" y="580" width="110" height="30" as="geometry" />
        </mxCell>
        <mxCell id="830I__SFOpYsRtfBFBau-34" value="" style="endArrow=none;html=1;rounded=0;strokeColor=#B3B3B3;" parent="1" edge="1">
          <mxGeometry width="50" height="50" relative="1" as="geometry">
            <mxPoint x="380" y="410" as="sourcePoint" />
            <mxPoint x="380" y="240" as="targetPoint" />
          </mxGeometry>
        </mxCell>
        <mxCell id="830I__SFOpYsRtfBFBau-35" value="" style="endArrow=none;html=1;rounded=0;strokeColor=#B3B3B3;" parent="1" edge="1">
          <mxGeometry width="50" height="50" relative="1" as="geometry">
            <mxPoint x="360" y="240" as="sourcePoint" />
            <mxPoint x="380" y="240" as="targetPoint" />
          </mxGeometry>
        </mxCell>
        <mxCell id="830I__SFOpYsRtfBFBau-36" value="" style="endArrow=none;html=1;rounded=0;strokeColor=#B3B3B3;" parent="1" edge="1">
          <mxGeometry width="50" height="50" relative="1" as="geometry">
            <mxPoint x="360" y="409.52" as="sourcePoint" />
            <mxPoint x="380" y="409.52" as="targetPoint" />
          </mxGeometry>
        </mxCell>
        <mxCell id="830I__SFOpYsRtfBFBau-37" value="" style="endArrow=none;html=1;rounded=0;strokeColor=#B3B3B3;" parent="1" edge="1">
          <mxGeometry width="50" height="50" relative="1" as="geometry">
            <mxPoint x="380" y="320" as="sourcePoint" />
            <mxPoint x="400" y="320" as="targetPoint" />
          </mxGeometry>
        </mxCell>
        <mxCell id="830I__SFOpYsRtfBFBau-38" value="&lt;div&gt;independent&lt;/div&gt;&lt;div align=&quot;left&quot;&gt;train&lt;br&gt;&lt;/div&gt;" style="text;html=1;align=center;verticalAlign=middle;whiteSpace=wrap;rounded=0;fontSize=10;fontColor=#B3B3B3;" parent="1" vertex="1">
          <mxGeometry x="408" y="306" width="60" height="30" as="geometry" />
        </mxCell>
        <mxCell id="830I__SFOpYsRtfBFBau-39" value="" style="endArrow=classic;html=1;rounded=0;fontColor=#B3B3B3;strokeColor=#B3B3B3;" parent="1" edge="1">
          <mxGeometry width="50" height="50" relative="1" as="geometry">
            <mxPoint x="372.5" y="510" as="sourcePoint" />
            <mxPoint x="342.5" y="480" as="targetPoint" />
          </mxGeometry>
        </mxCell>
        <mxCell id="830I__SFOpYsRtfBFBau-40" value="transfer station" style="text;html=1;align=left;verticalAlign=middle;whiteSpace=wrap;rounded=0;fontSize=10;strokeColor=none;fontColor=#B3B3B3;" parent="1" vertex="1">
          <mxGeometry x="380" y="500" width="110" height="30" as="geometry" />
        </mxCell>
        <mxCell id="830I__SFOpYsRtfBFBau-41" value="" style="endArrow=classic;html=1;rounded=0;fontColor=#B3B3B3;strokeColor=#B3B3B3;" parent="1" edge="1">
          <mxGeometry width="50" height="50" relative="1" as="geometry">
            <mxPoint x="-340" y="380" as="sourcePoint" />
            <mxPoint x="-310" y="410" as="targetPoint" />
          </mxGeometry>
        </mxCell>
        <mxCell id="830I__SFOpYsRtfBFBau-42" value="station" style="text;html=1;align=left;verticalAlign=middle;whiteSpace=wrap;rounded=0;fontSize=10;strokeColor=none;fontColor=#B3B3B3;" parent="1" vertex="1">
          <mxGeometry x="-374" y="352" width="110" height="30" as="geometry" />
        </mxCell>
      </root>
    </mxGraphModel>
  </diagram>
</mxfile>
